# xmcd CD database file
#
# Track frame offsets:
#	150
#	27951
#	50120
#	69314
#	81029
#	96564
#	118403
#	142963
#	161009
#	174378
#	194304
#	212640
#	235316
#	258835
#	287848
#	304465
#	323040
#
# Disc length: 4582 seconds
#
# Revision: 1
# Processed by: cddbd v1.5.1PL2 Copyright (c) Steve Scherf et al.
# Submitted via: Feurio! 1.68 - http://www.feurio.com
#
DISCID=fc11e411
DTITLE=Hamburg Blues Band - Axel Zwingenberger
DYEAR=1900
DGENRE=Blues
TTITLE0=Axel Zwingenberger - Edsel Run Boogie
TTITLE1=Axel Zwingenberger - Sunset Special
TTITLE2=Axel Zwingenberger - Blues On Top
TTITLE3=Axel Zwingenberger - Boogie Woogie Session
TTITLE4=Axel Zwingenberger - Hammerchord
TTITLE5=Axel Zwingenberger - Just Jiving The Blues
TTITLE6=Axel Zwingenberger - Goodnight Blues
TTITLE7=Axel Zwingenberger - Groovy Afternoon
TTITLE8=Ain´t Nothin Shakin
TTITLE9=Got What I Want
TTITLE10=Madman
TTITLE11=Make Love Strong
TTITLE12=Need Your Lovin
TTITLE13=On Your Way Down
TTITLE14=Rattlesnake Shake
TTITLE15=Real Stuff
TTITLE16=Signs And Wonders
EXTD=
EXTT0=
EXTT1=
EXTT2=
EXTT3=
EXTT4=
EXTT5=
EXTT6=
EXTT7=
EXTT8=
EXTT9=
EXTT10=
EXTT11=
EXTT12=
EXTT13=
EXTT14=
EXTT15=
EXTT16=
PLAYORDER=
